<?xml version="1.0" encoding="UTF-8" standalone="no"?>
<svg id="BG" xmlns="http://www.w3.org/2000/svg" viewBox="0 0 201.01 200"><defs><style>.cls-1{fill:#1393F6;}</style></defs><title>icons-lead</title><path class="cls-1" d="M100.5,2.5C46.65,2.5,3,43.49,3,100c0,51.18,43.65,97.5,97.5,97.5a97.5,97.5,0,1,0,0-195Zm4.24,63.91c1.24-9,7.15-15.55,13.19-14.55S127.87,61,126.62,70s-7.15,15.55-13.19,14.55S103.5,75.44,104.74,66.41ZM83.07,51.85c6-1,11.95,5.52,13.19,14.55s-2.64,17.15-8.69,18.14S75.63,79,74.38,70,77,52.84,83.07,51.85ZM49.75,93.31C45.35,85.54,46,76.41,51.2,72.91s13,0,17.38,7.73S72.32,97.54,67.12,101,54.15,101.08,49.75,93.31Zm61.9,51.25c-8.45-8.5-16.18-8.5-24.64,0-7.74,7.79-19.83,4.1-19.66-12.53.16-14.78,12.66-36.47,32-36.47s31.82,21.69,32,36.47C131.48,148.66,119.39,152.35,111.65,144.56Zm39.61-51.25c-4.4,7.77-12.18,11.23-17.37,7.73S128,88.41,132.43,80.64s12.18-11.23,17.38-7.73S155.65,85.54,151.26,93.31Z"/></svg>