<?xml version="1.0" encoding="UTF-8" standalone="no"?>
<svg id="BG" xmlns="http://www.w3.org/2000/svg" viewBox="0 0 201.01 200"><defs><style>.cls-1{fill:none;}.cls-2{fill:#1393F6;}</style></defs><title>icons-lead</title><g id="_32px_boxes" data-name="32px boxes"><rect class="cls-1" x="43.52" y="51.19" width="102.96" height="102.96"/></g><path class="cls-2" d="M54.6,100.67H53.41a52.77,52.77,0,0,0,3.1,7.14,48.41,48.41,0,0,0,15.81-3.45s-5.64,6.42-12.07,9.71a71.92,71.92,0,0,0,8.29,10.07,89.67,89.67,0,0,0,16-13.25s-7,9-10.53,18.27a68.37,68.37,0,0,0,8.75,6.25L87.51,127a40.76,40.76,0,0,0,.31,11.17A50.39,50.39,0,0,0,93,140.26a67.61,67.61,0,0,1,.84-11.85,58.17,58.17,0,0,1,10-24.86L90.13,89.86C77.28,99.13,62.8,100.67,54.6,100.67Z"/><path class="cls-2" d="M100.5,1.09C46.65,1.09,3,42.07,3,98.59c0,51.18,43.65,97.5,97.5,97.5a97.5,97.5,0,1,0,0-195ZM99.53,144a3.14,3.14,0,0,1-3.11,3.56c-2.25,0-17.22-3.92-31.86-18.56C48.77,113.25,46.21,98.38,46.11,97.75a3.14,3.14,0,0,1,3.52-3.62C62.35,95.7,80.29,91.77,92,80a15.81,15.81,0,0,1,10.81-4.38,15.18,15.18,0,0,1,11.33,25.3,3.13,3.13,0,0,1-.52.69C96.36,118.92,99.5,143.79,99.53,144Zm6.69-.18a7.39,7.39,0,1,1,10.45,0A7.4,7.4,0,0,1,106.22,143.86Zm19.09,14.22A5.91,5.91,0,1,1,127,153.9,5.91,5.91,0,0,1,125.31,158.08Zm13.26-11.45a4.14,4.14,0,1,1-.54-5.83A4.14,4.14,0,0,1,138.57,146.63Zm4.25-89.83L120.11,81.39a19.7,19.7,0,0,0-7.83-7.84l24.57-22.7a4.22,4.22,0,0,1,6,6Z"/></svg>