<?xml version="1.0" encoding="UTF-8" standalone="no"?>
<svg id="BG" xmlns="http://www.w3.org/2000/svg" viewBox="0 0 200 199"><defs><style>.cls-1{fill:#1393F6;}</style></defs><title>icons-lead</title><path class="cls-1" d="M81.85,97.29c14.78-7.35,21.56-7.34,36.31,0,4.45,2.21,10.33,5.38,11.18.46.3-1.76-.47-3.88-2.13-5.82-13-13.48-41.77-13.07-54.4,0-1.66,1.94-2.44,4.06-2.13,5.82C71.52,102.66,77.45,99.48,81.85,97.29Z"/><path class="cls-1" d="M115.71,102.21c-13.21-6.58-18.21-6.57-31.41,0-7,3.5-14,6.3-17.95-.49a17.82,17.82,0,0,0,.11,5.56c1.07,6.87,4.86,6.58,6.36,6.81,2.81,18.25,18.86,29.1,27.2,29.1,7,0,22.32-7.42,27.34-29.14,1.19-.18,5.11.09,6.18-6.78a17.82,17.82,0,0,0,.11-5.56C129.17,109.44,120.13,104.41,115.71,102.21ZM87.94,117.08a5.42,5.42,0,1,1,5.41-5.41A5.41,5.41,0,0,1,87.94,117.08Zm24.29,0a5.42,5.42,0,1,1,5.41-5.41A5.42,5.42,0,0,1,112.23,117.08Z"/><path class="cls-1" d="M99.09,76.48a1.88,1.88,0,0,0,1.82,0c4.31-2.4,6.07-6,6.07-12a2.06,2.06,0,0,0-1.87-2.08H94.89A2.06,2.06,0,0,0,93,64.47C93,70.46,94.78,74.08,99.09,76.48Z"/><path class="cls-1" d="M100,2C46.15,2,2.5,43,2.5,99.5,2.5,150.68,46.15,197,100,197A97.5,97.5,0,0,0,100,2Zm33.36,117.89c-5.63,20.66-23.29,30.5-33.33,30.5-11.06,0-27.84-11.31-33.35-30.48-9.51-5.05-11-24.54-.54-28.48a41.66,41.66,0,0,1,1.4-20.32c2.09-6.08,5.61-10.64,9.65-12.52a101.1,101.1,0,0,1,17.92-6.18c.1-2.11,2.25-3.8,4.9-3.8s4.83,1.71,4.9,3.84c6.67,1.51,15.48,5.07,19.62,6.83,8.43,3.58,11.86,15.83,9,32C144.37,95,142.84,114.81,133.36,119.89Z"/></svg>